# xmcd
# Track frame offsets:
# 150
# 26056
# 34065
# 47643
# 60919
# 72269
# 91611
# 102867
# 116457
# 130390
# 137937
#
# Disc length: 2005 seconds
# Revision: 0
# Processed by: cddbd v1.5.1PL0 Copyright (c) Steve Scherf et al.
# Submitted via: VisiTrax 2.9.10.228 - For more info visit www.synapsa.com
#
DISCID=8f07d30b
DTITLE=Johnny Seay - American Reflections
DYEAR=1999
DGENRE=
TTITLE0=Day for decision
TTITLE1=God bless America
TTITLE2=This Land
TTITLE3=I Believe
TTITLE4=When Johnny comes marching home
TTITLE5=The turning point
TTITLE6=America
TTITLE7=What is so rare?
TTITLE8=Generation
TTITLE9=The Star Spangled Banner
TTITLE10=Mary rocks him to sleep
EXTD=Re-released from the original 1966 LP
EXTT0=
EXTT1=
EXTT2=
EXTT3=
EXTT4=
EXTT5=
EXTT6=
EXTT7=
EXTT8=
EXTT9=
EXTT10=
PLAYORDER=
